# xmcd CD database file
#
# Track frame offsets:
#	150
#	10142
#	22485
#	36197
#	49355
#	60640
#	70545
#	82150
#	92212
#	103690
#	115812
#	127472
#	139605
#	151422
#	164292
#	174650
#
# Disc length: 2545 seconds
#
# Revision: 6
# Processed by: cddbd v1.5.2PL0 Copyright (c) Steve Scherf et al.
# Submitted via: CDex 1.70beta2
#
DISCID=e509ef10
DTITLE=Various Artist - The Greatest Country and Western Songs [CD 2_3)
DYEAR=1988
DGENRE=Country
TTITLE0=Johnny Cash - Hey Porter
TTITLE1=Lynn Anderson - Listen To A Country Song
TTITLE2=Willie Nelson - A Moment isn't Very Long
TTITLE3=Carl Perkins - Hallelujah Special
TTITLE4=Floyd Tillman - I'm Thinking Tonight Of My Blue Eyes
TTITLE5=Patsy Cline - Seven Lonley Days
TTITLE6=Frankie Lane - Mule Train
TTITLE7=Dave Dudley - Six Days On The Road
TTITLE8=Don Williams - Follow Me Back To Louisville
TTITLE9=Cowboy Copas - Settin' Flat On Ready
TTITLE10=Moon Mulligan - Jolie Blon
TTITLE11=Johnny Horton - Done Rovin'
TTITLE12=George Jones - Crazy Arms
TTITLE13=Slim Willet - Don't Let The Stars Get In Your Eyes
TTITLE14=Johnny Paycheck - A-11
TTITLE15=Joe South - Walkin A Mile In My Shoes
EXTD=YEAR: 1988
EXTT0=
EXTT1=
EXTT2=
EXTT3=
EXTT4=
EXTT5=
EXTT6=
EXTT7=
EXTT8=
EXTT9=
EXTT10=
EXTT11=
EXTT12=
EXTT13=
EXTT14=
EXTT15=
PLAYORDER=
